<?xml version="1.0" encoding="utf-8"?>
<!-- Generator: Adobe Illustrator 20.0.0, SVG Export Plug-In . SVG Version: 6.00 Build 0)  -->
<svg version="1.1" id="Capa_1" xmlns="http://www.w3.org/2000/svg" xmlns:xlink="http://www.w3.org/1999/xlink" x="0px" y="0px"
	 viewBox="0 0 532 415.3" style="enable-background:new 0 0 532 415.3;" xml:space="preserve">
<g>
	<path d="M7.3,291.6c21.9,20.8,41.8,44.9,68.6,60.4c3.7,2.2,9.9,0.1,8.7-5.1c-2-11.4-2.6-22.9-4-34c153.5,51.4,366.9-34,434.1-185.7
		c3.7-5.8,7.9-11.3,11-17.3c1.2-2.8,0.2-5.2-2.1-6.2c0.7-1.7,1.4-3.4,2.1-5.1c1.3-4.8-4.9-7.3-6.8-2.8c-3.9,9.6-9,18.8-13.8,27.4
		c-49.2,63.9-123.6,103.6-198.7,130.4c-65.2,23.6-156.1,55.2-223.1,21.9l-0.6-0.2c-1.1-15-7.7-29.6-13.2-43.7
		c-1-2.4-5.5-4.2-7.8-1.9C43.2,247.5,23.1,264.4,6.4,284C3.9,287,5.3,290.1,7.3,291.6z M18.6,288.3c13.6-15.6,29.3-29.7,44.4-44
		c4.5,11.7,8.1,23.8,11.6,36.5c0.9,4.3,8.6,4.8,8.8-0.4l0,0c26.7,22.1,65.9,21.6,98.8,17.2c42.1-5.9,83-17,123.3-31.6
		c55-19.8,113.4-46.2,160.2-84.7C373.6,289.8,226,337.3,81.3,304.7c-1.9-0.1-3.5,0.5-4.2,2.2c-1.9-0.1-4.6,1.4-4.6,4.7
		c1,9,0.2,17.3,0.6,26C53.1,323.6,36.3,304.8,18.6,288.3z"/>
</g>
</svg>
